<svg xmlns="http://www.w3.org/2000/svg" xmlns:xlink="http://www.w3.org/1999/xlink" width="48" zoomAndPan="magnify" viewBox="0 0 36 36.000001" height="48" preserveAspectRatio="xMidYMid meet" version="1.0"><defs><clipPath id="fd1028886d"><path d="M 0.488281 0 L 35.511719 0 L 35.511719 35.027344 L 0.488281 35.027344 Z M 0.488281 0 " clip-rule="nonzero"/></clipPath><clipPath id="d79d6ecfb3"><path d="M 5.742188 5.253906 L 30.550781 5.253906 L 30.550781 30.066406 L 5.742188 30.066406 Z M 5.742188 5.253906 " clip-rule="nonzero"/></clipPath></defs><g clip-path="url(#fd1028886d)"><path fill="#ffffff" d="M 0.488281 0 L 35.511719 0 L 35.511719 35.027344 L 0.488281 35.027344 Z M 0.488281 0 " fill-opacity="1" fill-rule="nonzero"/><path fill="#ffffff" d="M 0.488281 0 L 35.511719 0 L 35.511719 35.027344 L 0.488281 35.027344 Z M 0.488281 0 " fill-opacity="1" fill-rule="nonzero"/></g><g clip-path="url(#d79d6ecfb3)"><path fill="#000000" d="M 18.144531 30.066406 C 24.996094 30.066406 30.550781 24.511719 30.550781 17.660156 C 30.550781 10.808594 24.996094 5.253906 18.144531 5.253906 C 11.292969 5.253906 5.742188 10.808594 5.742188 17.660156 C 5.742188 24.511719 11.292969 30.066406 18.144531 30.066406 Z M 16.980469 11.703125 C 16.226562 11.703125 15.539062 12.128906 15.203125 12.800781 L 14.941406 13.324219 C 14.832031 13.546875 14.601562 13.691406 14.351562 13.691406 L 13.515625 13.691406 C 12.417969 13.691406 11.53125 14.578125 11.53125 15.675781 L 11.53125 21.628906 C 11.53125 22.726562 12.417969 23.613281 13.515625 23.613281 L 22.777344 23.613281 C 23.875 23.613281 24.761719 22.726562 24.761719 21.628906 L 24.761719 15.675781 C 24.761719 14.578125 23.875 13.691406 22.777344 13.691406 L 21.941406 13.691406 C 21.691406 13.691406 21.460938 13.546875 21.347656 13.324219 L 21.089844 12.800781 C 20.753906 12.128906 20.066406 11.703125 19.3125 11.703125 Z M 18.144531 16.335938 C 17.050781 16.335938 16.160156 17.226562 16.160156 18.320312 C 16.160156 19.417969 17.050781 20.304688 18.144531 20.304688 C 19.242188 20.304688 20.128906 19.417969 20.128906 18.320312 C 20.128906 17.226562 19.242188 16.335938 18.144531 16.335938 Z M 14.835938 18.320312 C 14.835938 16.492188 16.320312 15.011719 18.144531 15.011719 C 19.972656 15.011719 21.453125 16.492188 21.453125 18.320312 C 21.453125 20.148438 19.972656 21.628906 18.144531 21.628906 C 16.320312 21.628906 14.835938 20.148438 14.835938 18.320312 Z M 14.835938 18.320312 " fill-opacity="1" fill-rule="evenodd"/></g></svg>