<svg xmlns="http://www.w3.org/2000/svg" xmlns:xlink="http://www.w3.org/1999/xlink" width="48" zoomAndPan="magnify" viewBox="0 0 36 36.000001" height="48" preserveAspectRatio="xMidYMid meet" version="1.0"><defs><clipPath id="772286cf4f"><path d="M 0.488281 0 L 35.511719 0 L 35.511719 35.027344 L 0.488281 35.027344 Z M 0.488281 0 " clip-rule="nonzero"/></clipPath><clipPath id="c6f012d020"><path d="M 12 3.503906 L 24 3.503906 L 24 23 L 12 23 Z M 12 3.503906 " clip-rule="nonzero"/></clipPath><clipPath id="aaa804b21d"><path d="M 8.457031 14 L 27.429688 14 L 27.429688 31.234375 L 8.457031 31.234375 Z M 8.457031 14 " clip-rule="nonzero"/></clipPath><clipPath id="7794f46e05"><path d="M 13.339844 7.296875 L 22.828125 7.296875 L 22.828125 21.164062 L 13.339844 21.164062 Z M 13.339844 7.296875 " clip-rule="nonzero"/></clipPath></defs><g clip-path="url(#772286cf4f)"><path fill="#ffffff" d="M 0.488281 0 L 35.511719 0 L 35.511719 35.027344 L 0.488281 35.027344 Z M 0.488281 0 " fill-opacity="1" fill-rule="nonzero"/><path fill="#ffffff" d="M 0.488281 0 L 35.511719 0 L 35.511719 35.027344 L 0.488281 35.027344 Z M 0.488281 0 " fill-opacity="1" fill-rule="nonzero"/></g><g clip-path="url(#c6f012d020)"><path fill="#000000" d="M 23.042969 13.378906 C 23.042969 14.796875 23.0625 16.214844 23.042969 17.628906 C 23.019531 17.960938 22.96875 18.285156 22.886719 18.605469 C 22.804688 18.925781 22.695312 19.238281 22.554688 19.535156 C 22.414062 19.835938 22.246094 20.117188 22.054688 20.386719 C 21.859375 20.652344 21.644531 20.898438 21.40625 21.125 C 21.167969 21.351562 20.910156 21.554688 20.632812 21.730469 C 20.355469 21.90625 20.0625 22.054688 19.757812 22.179688 C 19.453125 22.300781 19.140625 22.390625 18.820312 22.453125 C 18.5 22.515625 18.175781 22.546875 17.847656 22.546875 C 17.519531 22.546875 17.195312 22.515625 16.871094 22.453125 C 16.550781 22.390625 16.238281 22.300781 15.933594 22.179688 C 15.628906 22.054688 15.339844 21.90625 15.0625 21.730469 C 14.785156 21.554688 14.527344 21.351562 14.289062 21.125 C 14.046875 20.898438 13.832031 20.652344 13.640625 20.386719 C 13.445312 20.117188 13.28125 19.835938 13.140625 19.535156 C 13 19.238281 12.886719 18.925781 12.804688 18.605469 C 12.722656 18.285156 12.671875 17.960938 12.648438 17.628906 C 12.621094 14.78125 12.621094 11.921875 12.648438 9.054688 C 12.664062 8.5 12.761719 7.960938 12.945312 7.4375 C 13.128906 6.914062 13.386719 6.429688 13.722656 5.992188 C 14.054688 5.550781 14.449219 5.171875 14.902344 4.855469 C 15.355469 4.542969 15.84375 4.304688 16.371094 4.148438 C 16.898438 3.988281 17.433594 3.914062 17.984375 3.929688 C 18.535156 3.941406 19.066406 4.042969 19.585938 4.226562 C 20.105469 4.410156 20.582031 4.671875 21.019531 5.007812 C 21.453125 5.347656 21.828125 5.742188 22.140625 6.199219 C 22.746094 7.074219 23.046875 8.046875 23.046875 9.113281 C 23.046875 10.542969 23.042969 11.960938 23.042969 13.378906 Z M 23.042969 13.378906 " fill-opacity="1" fill-rule="nonzero"/></g><g clip-path="url(#aaa804b21d)"><path fill="#000000" d="M 18.917969 26.941406 L 18.917969 29.015625 C 19.089844 29.042969 19.261719 29.0625 19.433594 29.070312 C 20.480469 29.070312 21.527344 29.070312 22.574219 29.070312 C 22.792969 29.066406 23.011719 29.082031 23.226562 29.125 C 23.484375 29.167969 23.699219 29.292969 23.863281 29.503906 C 24.03125 29.710938 24.105469 29.945312 24.09375 30.210938 C 24.070312 30.472656 23.964844 30.699219 23.78125 30.882812 C 23.597656 31.070312 23.375 31.175781 23.117188 31.199219 C 22.960938 31.210938 22.804688 31.210938 22.648438 31.199219 C 19.453125 31.199219 16.246094 31.199219 13.027344 31.199219 C 12.847656 31.214844 12.671875 31.214844 12.492188 31.199219 C 12.253906 31.15625 12.050781 31.042969 11.886719 30.859375 C 11.71875 30.675781 11.628906 30.460938 11.609375 30.210938 C 11.59375 29.953125 11.664062 29.722656 11.820312 29.519531 C 11.976562 29.3125 12.179688 29.183594 12.429688 29.128906 C 12.644531 29.085938 12.859375 29.066406 13.078125 29.070312 C 14.054688 29.070312 15.03125 29.070312 16.007812 29.070312 L 16.710938 29.070312 L 16.710938 26.984375 C 16.117188 26.832031 15.523438 26.730469 14.960938 26.53125 C 11.648438 25.375 9.5625 23.039062 8.703125 19.589844 C 8.59375 19.128906 8.535156 18.660156 8.523438 18.1875 C 8.488281 17.285156 8.484375 16.382812 8.5 15.484375 C 8.496094 15.34375 8.523438 15.210938 8.574219 15.082031 C 8.621094 14.953125 8.695312 14.835938 8.792969 14.738281 C 8.886719 14.636719 8.996094 14.5625 9.125 14.507812 C 9.25 14.449219 9.382812 14.421875 9.519531 14.421875 C 9.65625 14.417969 9.789062 14.441406 9.914062 14.492188 C 10.042969 14.542969 10.15625 14.617188 10.253906 14.714844 C 10.355469 14.8125 10.429688 14.921875 10.484375 15.050781 C 10.539062 15.179688 10.566406 15.3125 10.570312 15.449219 C 10.609375 16.214844 10.570312 16.980469 10.59375 17.753906 C 10.660156 20.511719 11.972656 22.535156 14.261719 23.941406 C 14.960938 24.347656 15.710938 24.628906 16.503906 24.78125 C 17.300781 24.929688 18.097656 24.949219 18.898438 24.828125 C 19.695312 24.710938 20.457031 24.460938 21.171875 24.082031 C 21.890625 23.707031 22.527344 23.222656 23.082031 22.628906 C 23.722656 21.96875 24.21875 21.214844 24.566406 20.359375 C 24.917969 19.507812 25.089844 18.617188 25.09375 17.691406 C 25.09375 17.066406 25.09375 16.433594 25.09375 15.800781 C 25.085938 15.621094 25.097656 15.441406 25.128906 15.265625 C 25.179688 15.011719 25.300781 14.808594 25.5 14.648438 C 25.699219 14.488281 25.925781 14.414062 26.179688 14.421875 C 26.4375 14.421875 26.660156 14.511719 26.847656 14.6875 C 27.039062 14.867188 27.140625 15.085938 27.15625 15.34375 C 27.414062 18.824219 26.867188 22.039062 24.140625 24.527344 C 22.757812 25.816406 21.136719 26.601562 19.28125 26.886719 C 19.1875 26.890625 19.078125 26.921875 18.917969 26.941406 Z M 18.917969 26.941406 " fill-opacity="1" fill-rule="nonzero"/></g><g clip-path="url(#7794f46e05)"><path fill="#000000" d="M 22.457031 13.269531 C 22.253906 13.269531 22.089844 13.429688 22.089844 13.628906 L 22.089844 14.734375 C 22.089844 15.777344 21.675781 16.753906 20.917969 17.492188 C 20.160156 18.226562 19.15625 18.632812 18.082031 18.632812 C 17.011719 18.632812 16.007812 18.226562 15.25 17.492188 C 14.492188 16.753906 14.078125 15.777344 14.078125 14.734375 L 14.078125 13.628906 C 14.078125 13.429688 13.910156 13.269531 13.710938 13.269531 C 13.507812 13.269531 13.34375 13.429688 13.34375 13.628906 L 13.34375 14.734375 C 13.34375 15.96875 13.835938 17.125 14.730469 17.996094 C 15.539062 18.78125 16.589844 19.25 17.714844 19.332031 L 17.714844 20.449219 L 16.53125 20.449219 C 16.328125 20.449219 16.164062 20.609375 16.164062 20.804688 C 16.164062 21.003906 16.328125 21.164062 16.53125 21.164062 L 19.636719 21.164062 C 19.839844 21.164062 20.003906 21.003906 20.003906 20.804688 C 20.003906 20.609375 19.839844 20.449219 19.636719 20.449219 L 18.453125 20.449219 L 18.453125 19.332031 C 19.578125 19.25 20.628906 18.78125 21.4375 17.996094 C 22.332031 17.125 22.824219 15.96875 22.824219 14.734375 L 22.824219 13.628906 C 22.824219 13.429688 22.660156 13.269531 22.457031 13.269531 Z M 18.082031 8.023438 C 17.433594 8.023438 16.820312 8.269531 16.359375 8.71875 C 15.898438 9.167969 15.644531 9.761719 15.644531 10.398438 L 15.644531 14.65625 C 15.644531 15.289062 15.898438 15.886719 16.359375 16.332031 C 16.820312 16.78125 17.433594 17.027344 18.082031 17.027344 C 18.734375 17.027344 19.347656 16.78125 19.808594 16.332031 C 20.269531 15.886719 20.523438 15.289062 20.523438 14.65625 L 20.523438 10.398438 C 20.523438 9.761719 20.269531 9.167969 19.808594 8.71875 C 19.347656 8.269531 18.734375 8.023438 18.082031 8.023438 Z M 18.082031 17.753906 C 17.234375 17.753906 16.433594 17.433594 15.832031 16.847656 C 15.226562 16.261719 14.898438 15.484375 14.898438 14.65625 L 14.898438 10.398438 C 14.898438 9.570312 15.226562 8.792969 15.832031 8.207031 C 16.433594 7.621094 17.234375 7.296875 18.082031 7.296875 C 18.933594 7.296875 19.734375 7.621094 20.335938 8.207031 C 20.941406 8.792969 21.269531 9.570312 21.269531 10.398438 L 21.269531 14.65625 C 21.269531 15.484375 20.941406 16.261719 20.335938 16.847656 C 19.734375 17.433594 18.933594 17.753906 18.082031 17.753906 " fill-opacity="1" fill-rule="nonzero"/></g></svg>