<svg xmlns="http://www.w3.org/2000/svg" xmlns:xlink="http://www.w3.org/1999/xlink" width="48" zoomAndPan="magnify" viewBox="0 0 36 36.000001" height="48" preserveAspectRatio="xMidYMid meet" version="1.0"><defs><clipPath id="f20177fa7c"><path d="M 7.492188 7.003906 L 28.652344 7.003906 L 28.652344 28.167969 L 7.492188 28.167969 Z M 7.492188 7.003906 " clip-rule="nonzero"/></clipPath><clipPath id="bdf8bfdc11"><path d="M 11 10 L 25 10 L 25 25 L 11 25 Z M 11 10 " clip-rule="nonzero"/></clipPath><clipPath id="6b31b78716"><path d="M 11.5625 10.113281 L 25.40625 10.9375 L 24.578125 24.777344 L 10.738281 23.953125 Z M 11.5625 10.113281 " clip-rule="nonzero"/></clipPath><clipPath id="c28440d81c"><path d="M 11.5625 10.113281 L 25.40625 10.9375 L 24.578125 24.777344 L 10.738281 23.953125 Z M 11.5625 10.113281 " clip-rule="nonzero"/></clipPath><clipPath id="fb70efd885"><path d="M 11.5625 10.113281 L 25.40625 10.9375 L 24.578125 24.777344 L 10.738281 23.953125 Z M 11.5625 10.113281 " clip-rule="nonzero"/></clipPath></defs><g clip-path="url(#f20177fa7c)"><path fill="#000000" d="M 18.070312 7.003906 C 12.214844 7.003906 7.492188 11.777344 7.492188 17.585938 C 7.492188 23.441406 12.261719 28.164062 18.070312 28.164062 C 23.929688 28.164062 28.652344 23.394531 28.652344 17.585938 C 28.652344 11.777344 23.929688 7.003906 18.070312 7.003906 Z M 24.636719 22.6875 C 24.351562 23.632812 23.078125 25 21.898438 25 L 21.800781 24.953125 C 20.054688 24.859375 17.644531 23.207031 15.425781 20.515625 L 14.621094 19.523438 C 12.402344 16.828125 11.222656 14.183594 11.503906 12.484375 C 11.695312 11.257812 13.488281 10.265625 14.527344 10.265625 C 15.046875 10.265625 15.238281 10.5 15.285156 10.6875 C 15.851562 11.726562 16.605469 13.523438 16.605469 14.183594 L 16.605469 14.277344 C 16.464844 14.609375 16.183594 14.796875 15.945312 14.941406 C 15.613281 15.128906 15.425781 15.269531 15.378906 15.601562 C 15.378906 15.695312 15.472656 16.214844 16.9375 18.011719 L 17.550781 18.765625 C 19.015625 20.515625 19.488281 20.703125 19.582031 20.703125 C 19.960938 20.75 20.101562 20.609375 20.386719 20.324219 C 20.574219 20.089844 20.8125 19.851562 21.140625 19.804688 L 21.234375 19.804688 C 21.898438 19.945312 23.503906 20.988281 24.449219 21.789062 C 24.589844 21.835938 24.824219 22.074219 24.636719 22.6875 Z M 24.636719 22.6875 " fill-opacity="1" fill-rule="nonzero"/></g><g clip-path="url(#bdf8bfdc11)"><g clip-path="url(#6b31b78716)"><g clip-path="url(#c28440d81c)"><g clip-path="url(#fb70efd885)"><path fill="#282828" d="M 23.539062 23.230469 L 23.542969 23.230469 Z M 13.875 11.359375 C 13.742188 11.351562 13.617188 11.402344 13.476562 11.511719 C 13.460938 11.523438 13.257812 11.691406 13.125 11.800781 L 13.007812 11.894531 C 12.335938 12.441406 11.984375 13.476562 12.113281 14.53125 C 12.152344 14.871094 12.230469 15.226562 12.34375 15.585938 C 12.914062 17.402344 14.101562 19.023438 14.996094 20.0625 C 15.886719 21.105469 17.3125 22.53125 19.039062 23.390625 C 19.378906 23.5625 19.722656 23.699219 20.058594 23.796875 C 21.097656 24.101562 22.199219 23.941406 22.863281 23.386719 L 22.972656 23.292969 C 23.101562 23.1875 23.300781 23.023438 23.332031 23 C 23.746094 22.628906 23.570312 22.289062 22.832031 21.457031 L 22.648438 21.246094 C 22.179688 20.710938 21.394531 19.8125 20.683594 19.855469 C 20.492188 19.867188 20.28125 19.992188 20.0625 20.125 C 19.84375 20.253906 19.617188 20.390625 19.351562 20.457031 C 18.636719 20.632812 17.933594 20.445312 17.371094 19.933594 C 17.035156 19.628906 16.699219 19.273438 16.390625 18.90625 C 16.082031 18.554688 15.785156 18.167969 15.535156 17.789062 C 15.117188 17.160156 15.050781 16.449219 15.347656 15.789062 C 15.460938 15.542969 15.636719 15.347656 15.804688 15.160156 C 15.976562 14.96875 16.140625 14.789062 16.183594 14.605469 C 16.34375 13.925781 15.578125 13.015625 15.121094 12.472656 L 14.941406 12.257812 C 14.457031 11.667969 14.15625 11.378906 13.875 11.359375 Z M 20.867188 24.554688 C 20.515625 24.535156 20.179688 24.472656 19.878906 24.386719 C 19.507812 24.277344 19.128906 24.125 18.753906 23.9375 C 16.933594 23.03125 15.445312 21.542969 14.515625 20.457031 C 13.585938 19.375 12.34375 17.679688 11.746094 15.765625 C 11.621094 15.371094 11.535156 14.980469 11.492188 14.601562 C 11.371094 13.601562 11.601562 12.242188 12.609375 11.421875 L 12.722656 11.328125 C 12.863281 11.214844 13.082031 11.035156 13.089844 11.027344 C 14.09375 10.261719 14.898438 11.230469 15.425781 11.871094 L 15.601562 12.082031 C 16.136719 12.710938 17.027344 13.769531 16.792969 14.746094 C 16.710938 15.082031 16.480469 15.339844 16.277344 15.566406 C 16.132812 15.730469 15.992188 15.882812 15.921875 16.042969 C 15.707031 16.511719 15.753906 17 16.058594 17.457031 C 16.292969 17.808594 16.574219 18.175781 16.871094 18.511719 C 17.164062 18.863281 17.484375 19.195312 17.796875 19.484375 C 18.203125 19.855469 18.6875 19.984375 19.195312 19.859375 C 19.371094 19.816406 19.546875 19.710938 19.734375 19.597656 C 20 19.441406 20.296875 19.261719 20.648438 19.242188 C 21.671875 19.183594 22.578125 20.226562 23.121094 20.851562 L 23.304688 21.054688 C 23.855469 21.675781 24.691406 22.617188 23.75 23.457031 C 23.734375 23.46875 23.515625 23.652344 23.375 23.765625 L 23.269531 23.851562 C 22.574219 24.433594 21.679688 24.605469 20.867188 24.554688 " fill-opacity="1" fill-rule="nonzero"/></g></g></g></g></svg>